<svg width="32" height="32" viewBox="0 0 32 32" fill="none" xmlns="http://www.w3.org/2000/svg">
<rect width="32" height="32" rx="7" fill="url(#paint0_radial_0_1)" fill-opacity="0.9"/>
<path d="M10.216 6.824H13.869V7.214H10.216V6.824ZM13.648 3.405H14.077V11.92H13.648V3.405ZM6.94002 14.169H14.376V14.559H6.94002V14.169ZM6.94002 11.101H7.35602V14.273H6.94002V11.101ZM5.45802 4.172H5.88702V6.486H9.95602V4.172H10.385V9.801H5.45802V4.172ZM5.88702 6.863V9.411H9.95602V6.863H5.88702ZM25.113 3.405H25.542V12.037H25.113V3.405ZM25.36 7.448H27.414V7.838H25.36V7.448ZM16.832 5.004H23.631V5.394H16.832V5.004ZM20.225 6.252C20.7623 6.252 21.2303 6.33867 21.629 6.512C22.0277 6.67667 22.3353 6.915 22.552 7.227C22.7773 7.53033 22.89 7.89433 22.89 8.319C22.89 8.735 22.7773 9.099 22.552 9.411C22.3353 9.71433 22.0277 9.95267 21.629 10.126C21.2303 10.2907 20.7623 10.373 20.225 10.373C19.6877 10.373 19.2153 10.2907 18.808 10.126C18.4093 9.95267 18.0973 9.71433 17.872 9.411C17.6553 9.099 17.547 8.735 17.547 8.319C17.547 7.89433 17.6553 7.53033 17.872 7.227C18.0973 6.915 18.4093 6.67667 18.808 6.512C19.2153 6.33867 19.6877 6.252 20.225 6.252ZM20.225 6.629C19.5403 6.629 18.99 6.78933 18.574 7.11C18.158 7.422 17.95 7.825 17.95 8.319C17.95 8.80433 18.158 9.20733 18.574 9.528C18.99 9.84 19.5403 9.996 20.225 9.996C20.901 9.996 21.447 9.84 21.863 9.528C22.279 9.20733 22.487 8.80433 22.487 8.319C22.487 7.825 22.279 7.422 21.863 7.11C21.447 6.78933 20.901 6.629 20.225 6.629ZM20.017 3.418H20.446V5.238H20.017V3.418ZM18.665 14.169H26.166V14.559H18.665V14.169ZM18.665 11.309H19.081V14.312H18.665V11.309ZM10.19 19.238H13.791V19.615H10.19V19.238ZM10.19 21.89H13.791V22.28H10.19V21.89ZM6.58902 24.88H14.077V28.871H13.648V25.257H6.58902V24.88ZM13.648 17.392H14.077V24.126H13.648V17.392ZM7.90202 18.081C8.45668 18.081 8.95068 18.1937 9.38402 18.419C9.81735 18.6443 10.1553 18.9607 10.398 19.368C10.6493 19.7667 10.775 20.2303 10.775 20.759C10.775 21.2877 10.6493 21.7513 10.398 22.15C10.1553 22.5487 9.81735 22.8607 9.38402 23.086C8.95068 23.3113 8.45668 23.424 7.90202 23.424C7.34735 23.424 6.85335 23.3113 6.42002 23.086C5.98668 22.8607 5.64435 22.5487 5.39302 22.15C5.15035 21.7513 5.02902 21.2877 5.02902 20.759C5.02902 20.2303 5.15035 19.7667 5.39302 19.368C5.64435 18.9607 5.98668 18.6443 6.42002 18.419C6.85335 18.1937 7.34735 18.081 7.90202 18.081ZM7.90202 18.458C7.43402 18.458 7.01368 18.562 6.64102 18.77C6.26835 18.978 5.97368 19.2553 5.75702 19.602C5.54902 19.9487 5.44502 20.3343 5.44502 20.759C5.44502 21.1837 5.54902 21.5693 5.75702 21.916C5.97368 22.2627 6.26835 22.54 6.64102 22.748C7.01368 22.9473 7.43402 23.047 7.90202 23.047C8.37002 23.047 8.79035 22.9473 9.16302 22.748C9.53568 22.54 9.82602 22.2627 10.034 21.916C10.2507 21.5693 10.359 21.1837 10.359 20.759C10.359 20.3343 10.2507 19.9487 10.034 19.602C9.82602 19.2553 9.53568 18.978 9.16302 18.77C8.79035 18.562 8.37002 18.458 7.90202 18.458ZM18.145 17.912H25.646V18.289H18.145V17.912ZM16.767 21.903H27.18V22.293H16.767V21.903ZM25.282 17.912H25.698V18.601C25.698 19.017 25.685 19.5067 25.659 20.07C25.633 20.6247 25.542 21.279 25.386 22.033L24.97 21.955C25.126 21.2097 25.217 20.564 25.243 20.018C25.269 19.472 25.282 18.9997 25.282 18.601V17.912ZM18.067 23.801H25.802V26.375H18.522V28.429H18.106V25.985H25.386V24.191H18.067V23.801ZM18.106 28.286H26.088V28.676H18.106V28.286Z" fill="white"/>
<defs>
<radialGradient id="paint0_radial_0_1" cx="0" cy="0" r="1" gradientUnits="userSpaceOnUse" gradientTransform="translate(16 16) scale(16)">
<stop offset="0.5"/>
<stop offset="0.5"/>
</radialGradient>
</defs>
</svg>
